<svg width="22" height="20" viewBox="0 0 22 20" fill="none" xmlns="http://www.w3.org/2000/svg">
<path d="M20.7027 13.8086H6.86865L7.56326 12.3702L19.1044 12.3489C19.4947 12.3489 19.8292 12.0655 19.8989 11.6734L21.4972 2.57767C21.539 2.33912 21.4763 2.09348 21.323 1.90689C21.2472 1.81506 21.1527 1.74108 21.046 1.6901C20.9393 1.63912 20.8229 1.61235 20.705 1.61165L6.02305 1.56205L5.8976 0.962118C5.81861 0.579488 5.47944 0.300781 5.09381 0.300781H1.50462C1.28713 0.300781 1.07855 0.388623 0.924758 0.544983C0.770969 0.701343 0.68457 0.913412 0.68457 1.13454C0.68457 1.35566 0.770969 1.56773 0.924758 1.72409C1.07855 1.88045 1.28713 1.9683 1.50462 1.9683H4.4294L4.97765 4.61837L6.32737 11.2624L4.5897 14.1463C4.49946 14.2702 4.4451 14.4172 4.43279 14.5708C4.42047 14.7244 4.45068 14.8785 4.52 15.0155C4.65939 15.2966 4.94048 15.4737 5.25178 15.4737H6.71068C6.39966 15.8937 6.23167 16.4053 6.23213 16.931C6.23213 18.2679 7.30075 19.3544 8.61562 19.3544C9.9305 19.3544 10.9991 18.2679 10.9991 16.931C10.9991 16.4043 10.8272 15.8918 10.5206 15.4737H14.2631C13.9521 15.8937 13.7841 16.4053 13.7845 16.931C13.7845 18.2679 14.8531 19.3544 16.168 19.3544C17.4829 19.3544 18.5515 18.2679 18.5515 16.931C18.5515 16.4043 18.3796 15.8918 18.073 15.4737H20.705C21.1557 15.4737 21.5251 15.1006 21.5251 14.64C21.5237 14.4191 21.4365 14.2077 21.2824 14.052C21.1284 13.8962 20.92 13.8087 20.7027 13.8086ZM6.36454 3.20594L19.7409 3.25082L18.4307 10.7098L7.92334 10.7287L6.36454 3.20594ZM8.61562 17.6774C8.2114 17.6774 7.88152 17.342 7.88152 16.931C7.88152 16.5201 8.2114 16.1847 8.61562 16.1847C9.01984 16.1847 9.34972 16.5201 9.34972 16.931C9.34972 17.129 9.27238 17.3188 9.13471 17.4588C8.99704 17.5988 8.81032 17.6774 8.61562 17.6774ZM16.168 17.6774C15.7638 17.6774 15.4339 17.342 15.4339 16.931C15.4339 16.5201 15.7638 16.1847 16.168 16.1847C16.5722 16.1847 16.9021 16.5201 16.9021 16.931C16.9021 17.129 16.8248 17.3188 16.6871 17.4588C16.5494 17.5988 16.3627 17.6774 16.168 17.6774Z" fill="black"/>
</svg>
