<svg width="119" height="149" viewBox="0 0 119 149" fill="none" xmlns="http://www.w3.org/2000/svg">
<g clip-path="url(#clip0_150_298)">
<path d="M44.8499 -0.087856C45.1959 -0.0890987 45.5419 -0.0906128 45.8879 -0.092373C46.8167 -0.0962282 47.7454 -0.0960212 48.6742 -0.0947746C49.455 -0.0940971 50.2357 -0.0954329 51.0164 -0.0967377C52.8614 -0.0997751 54.7064 -0.0994602 56.5513 -0.0969762C58.4423 -0.0944862 60.3333 -0.0975367 62.2243 -0.103361C63.8589 -0.108203 65.4936 -0.109608 67.1283 -0.108339C68.0997 -0.107614 69.071 -0.108087 70.0424 -0.111869C78.9079 -0.143079 86.4573 1.49429 92.9814 7.41142C95.641 9.91488 97.9128 13.1455 99.1116 16.5062C99.3366 16.5093 99.5616 16.5125 99.7935 16.5157C100.633 16.5284 101.472 16.5452 102.312 16.5632C102.674 16.5703 103.037 16.5764 103.399 16.5814C103.922 16.5887 104.445 16.6001 104.967 16.6122C105.208 16.6143 105.208 16.6143 105.454 16.6164C106.806 16.6543 107.733 16.9404 108.673 17.8621C109.175 18.5566 109.224 18.9103 109.23 19.7397C109.233 19.992 109.237 20.2442 109.241 20.5042C109.239 20.9101 109.239 20.9101 109.237 21.3242C109.239 21.6039 109.24 21.8837 109.242 22.172C109.244 22.7634 109.243 23.3546 109.24 23.9459C109.236 24.7014 109.241 25.4565 109.249 26.2119C109.256 26.9355 109.253 27.6591 109.252 28.3827C109.255 28.6529 109.258 28.9231 109.261 29.2014C109.237 31.292 109.237 31.292 108.588 32.0801C107.423 32.9803 106.538 33.0689 105.041 33.1023C104.796 33.1086 104.796 33.1086 104.546 33.1151C104.027 33.128 103.509 33.1381 102.99 33.1481C102.637 33.1564 102.284 33.1649 101.931 33.1736C101.069 33.1944 100.206 33.2127 99.344 33.2296C99.2585 33.4462 99.1729 33.6628 99.0848 33.886C97.8832 36.8916 96.2288 39.4731 93.9983 41.9171C93.8964 42.0386 93.7945 42.1601 93.6896 42.2853C89.8685 46.8319 83.2678 49.5973 77.2639 50.3874C75.3109 50.5791 73.3747 50.6369 71.412 50.6361C71.1194 50.6369 70.8269 50.6376 70.5255 50.6383C69.7311 50.6402 68.9367 50.6408 68.1424 50.6409C67.6433 50.6411 67.1443 50.6415 66.6453 50.6421C64.8966 50.6441 63.1479 50.645 61.3992 50.6448C59.782 50.6447 58.1647 50.647 56.5474 50.6504C55.1486 50.6533 53.7499 50.6544 52.3511 50.6543C51.5202 50.6542 50.6894 50.6548 49.8586 50.6572C40.4034 50.6818 40.4034 50.6818 36.1252 49.3015C35.8673 49.2183 35.6093 49.1352 35.3435 49.0495C29.0251 46.8918 24.1661 42.7763 20.8435 37.3561C20.7587 37.2198 20.674 37.0835 20.5867 36.943C19.8776 35.7566 19.3952 34.5135 18.926 33.2296C18.708 33.2264 18.49 33.2233 18.2654 33.22C17.4518 33.2067 16.6384 33.1906 15.825 33.1726C15.4738 33.1654 15.1226 33.1593 14.7714 33.1543C14.2647 33.147 13.7582 33.1356 13.2517 33.1235C12.9474 33.1179 12.6431 33.1122 12.3296 33.1063C11.1549 32.9752 10.4158 32.6761 9.59657 31.8736C9.09514 31.1791 9.04571 30.8253 9.04031 29.996C9.03663 29.7437 9.03295 29.4915 9.02916 29.2316C9.03031 28.961 9.03147 28.6904 9.03265 28.4116C9.03121 28.1318 9.02977 27.852 9.02829 27.5637C9.02587 26.9724 9.02692 26.3811 9.03033 25.7898C9.03432 25.0343 9.02886 24.2793 9.02068 23.5238C9.01433 22.8002 9.01668 22.0767 9.01813 21.353C9.01505 21.0828 9.01196 20.8127 9.00879 20.5343C9.03286 18.4437 9.03286 18.4437 9.68186 17.6557C10.841 16.7601 11.8086 16.6562 13.2798 16.6334C13.4484 16.6292 13.617 16.625 13.7907 16.6207C14.3258 16.6077 14.8609 16.5976 15.3961 16.5876C15.7603 16.5793 16.1246 16.5708 16.4888 16.5621C17.3786 16.5414 18.2685 16.5231 19.1584 16.5062C19.2642 16.2662 19.3699 16.0262 19.4789 15.779C20.3366 13.8435 21.3036 12.117 22.6448 10.4249C22.7877 10.2429 22.9306 10.0609 23.0778 9.87345C28.3369 3.46341 36.2326 -0.116356 44.8499 -0.087856Z" fill="#FF5395"/>
<path d="M58.9615 56.2107C59.217 56.2108 59.4725 56.2109 59.7357 56.2111C78.8802 56.2377 78.8802 56.2377 82.4053 59.5041C82.5497 59.6491 82.6941 59.7942 82.8429 59.9436C83.0065 60.0976 83.1701 60.2516 83.3386 60.4102C89.1816 66.1366 91.8946 74.2048 91.733 82C91.6106 85.1827 91.0003 88.2358 89.8155 91.2186C89.7581 91.3674 89.7006 91.5162 89.6413 91.6695C86.6093 99.417 80.3343 105.155 72.5037 108.748C71.0215 109.377 69.5164 109.861 67.9534 110.277C67.7918 110.32 67.6302 110.363 67.4637 110.408C64.7296 111.095 62.017 111.282 59.194 111.268C59.0305 111.267 58.8671 111.267 58.6988 111.267C51.3073 111.236 43.7675 108.938 38.2179 104.25C38.0234 104.094 37.829 103.938 37.6287 103.777C35.2021 101.804 33.2186 99.5991 31.4777 97.0827C31.3368 96.8828 31.196 96.6829 31.0509 96.4769C26.6359 89.8497 25.612 81.6164 27.2941 74.0608C27.5947 72.8729 28.0005 71.7288 28.4562 70.5858C28.5149 70.4358 28.5736 70.2859 28.6341 70.1314C30.056 66.5532 32.0874 63.4962 34.7316 60.5952C34.9089 60.3992 35.0863 60.2032 35.269 60.0013C38.4398 56.7633 44.7098 56.76 49.1417 56.4686C49.4303 56.4496 49.7189 56.4305 50.0162 56.411C52.9972 56.2289 55.9751 56.2078 58.9615 56.2107Z" fill="#FFAECD"/>
<path d="M44.8499 -0.087856C45.1959 -0.0890987 45.5419 -0.0906128 45.8879 -0.092373C46.8167 -0.0962282 47.7454 -0.0960212 48.6742 -0.0947746C49.455 -0.0940971 50.2357 -0.0954329 51.0164 -0.0967377C52.8614 -0.0997751 54.7064 -0.0994602 56.5513 -0.0969762C58.4423 -0.0944862 60.3333 -0.0975367 62.2243 -0.103361C63.8589 -0.108203 65.4936 -0.109608 67.1283 -0.108339C68.0997 -0.107614 69.071 -0.108087 70.0424 -0.111869C78.9079 -0.143079 86.4573 1.49429 92.9814 7.41142C95.641 9.91488 97.9128 13.1455 99.1116 16.5062C99.3366 16.5093 99.5616 16.5125 99.7935 16.5157C100.633 16.5284 101.472 16.5452 102.312 16.5632C102.674 16.5703 103.037 16.5764 103.399 16.5814C103.922 16.5887 104.445 16.6001 104.967 16.6122C105.208 16.6143 105.208 16.6143 105.454 16.6164C106.806 16.6543 107.733 16.9404 108.673 17.8621C109.175 18.5566 109.224 18.9103 109.23 19.7397C109.233 19.992 109.237 20.2442 109.241 20.5042C109.239 20.9101 109.239 20.9101 109.237 21.3242C109.239 21.6039 109.24 21.8837 109.242 22.172C109.244 22.7634 109.243 23.3546 109.24 23.9459C109.236 24.7014 109.241 25.4565 109.249 26.2119C109.256 26.9355 109.253 27.6591 109.252 28.3827C109.255 28.6529 109.258 28.9231 109.261 29.2014C109.237 31.292 109.237 31.292 108.588 32.0801C107.423 32.9803 106.538 33.0689 105.041 33.1023C104.796 33.1086 104.796 33.1086 104.546 33.1151C104.027 33.128 103.509 33.1381 102.99 33.1481C102.637 33.1564 102.284 33.1649 101.931 33.1736C101.069 33.1944 100.206 33.2127 99.344 33.2296C99.2585 33.4462 99.1729 33.6628 99.0848 33.886C97.8832 36.8916 96.2288 39.4731 93.9983 41.9171C93.8964 42.0386 93.7945 42.1601 93.6896 42.2853C89.8685 46.8319 83.2678 49.5973 77.2639 50.3874C75.3109 50.5791 73.3747 50.6369 71.412 50.6361C71.1194 50.6369 70.8269 50.6376 70.5255 50.6383C69.7311 50.6402 68.9367 50.6408 68.1424 50.6409C67.6433 50.6411 67.1443 50.6415 66.6453 50.6421C64.8966 50.6441 63.1479 50.645 61.3992 50.6448C59.782 50.6447 58.1647 50.647 56.5474 50.6504C55.1486 50.6533 53.7499 50.6544 52.3511 50.6543C51.5202 50.6542 50.6894 50.6548 49.8586 50.6572C40.4034 50.6818 40.4034 50.6818 36.1252 49.3015C35.8673 49.2183 35.6093 49.1352 35.3435 49.0495C29.0251 46.8918 24.1661 42.7763 20.8435 37.3561C20.7587 37.2198 20.674 37.0835 20.5867 36.943C19.8776 35.7566 19.3952 34.5135 18.926 33.2296C18.708 33.2264 18.49 33.2233 18.2654 33.22C17.4518 33.2067 16.6384 33.1906 15.825 33.1726C15.4738 33.1654 15.1226 33.1593 14.7714 33.1543C14.2647 33.147 13.7582 33.1356 13.2517 33.1235C12.9474 33.1179 12.6431 33.1122 12.3296 33.1063C11.1549 32.9752 10.4158 32.6761 9.59657 31.8736C9.09514 31.1791 9.04571 30.8253 9.04031 29.996C9.03663 29.7437 9.03295 29.4915 9.02916 29.2316C9.03031 28.961 9.03147 28.6904 9.03265 28.4116C9.03121 28.1318 9.02977 27.852 9.02829 27.5637C9.02587 26.9724 9.02692 26.3811 9.03033 25.7898C9.03432 25.0343 9.02886 24.2793 9.02068 23.5238C9.01433 22.8002 9.01668 22.0767 9.01813 21.353C9.01505 21.0828 9.01196 20.8127 9.00879 20.5343C9.03286 18.4437 9.03286 18.4437 9.68186 17.6557C10.841 16.7601 11.8086 16.6562 13.2798 16.6334C13.4484 16.6292 13.617 16.625 13.7907 16.6207C14.3258 16.6077 14.8609 16.5976 15.3961 16.5876C15.7603 16.5793 16.1246 16.5708 16.4888 16.5621C17.3786 16.5414 18.2685 16.5231 19.1584 16.5062C19.2642 16.2662 19.3699 16.0262 19.4789 15.779C20.3366 13.8435 21.3036 12.117 22.6448 10.4249C22.7877 10.2429 22.9306 10.0609 23.0778 9.87345C28.3369 3.46341 36.2326 -0.116356 44.8499 -0.087856ZM37.4326 9.29824C37.278 9.3728 37.1235 9.44736 36.9642 9.52418C35.7224 10.1398 34.6281 10.8642 33.5686 11.728C33.3433 11.896 33.118 12.064 32.8859 12.2371C29.6151 14.7885 27.3885 19.2051 26.9382 23.1049C26.4876 28.0084 27.8846 32.7922 31.2589 36.6231C33.1128 38.6257 35.2671 40.1923 37.8103 41.3605C38.0213 41.4602 38.0213 41.4602 38.2367 41.5619C42.0529 43.1899 46.1778 43.1321 50.2821 43.1126C51.0858 43.1095 51.8895 43.111 52.6932 43.1117C54.0413 43.1123 55.3893 43.1094 56.7374 43.1044C58.2848 43.0986 59.832 43.0982 61.3794 43.1007C62.8827 43.1031 64.386 43.1017 65.8894 43.0987C66.5225 43.0974 67.1556 43.0974 67.7887 43.0985C75.2611 43.1039 80.9573 42.1505 86.4246 37.0499C87.678 35.814 88.5744 34.5504 89.3498 33.0124C89.5076 32.7 89.5076 32.7 89.6685 32.3812C91.5934 28.3247 91.9976 23.5273 90.2795 19.3296C88.1543 14.5058 84.6376 10.8766 79.4864 8.80957C76.7753 7.7597 74.3149 7.56899 71.4174 7.56302C71.1145 7.56159 70.8115 7.56016 70.4993 7.55869C69.5 7.55416 68.5006 7.55188 67.5013 7.54971C67.1551 7.54883 66.809 7.54794 66.4629 7.54703C64.8356 7.5429 63.2083 7.5398 61.581 7.53799C59.7121 7.53587 57.8433 7.53016 55.9744 7.52138C54.5236 7.51479 53.0727 7.51161 51.6218 7.51089C50.7583 7.51038 49.8947 7.50849 49.0312 7.50297C43.0376 7.46286 43.0376 7.46286 37.4326 9.29824Z" fill="#F4B3B3"/>
<path d="M58.9614 56.2107C59.2169 56.2108 59.4724 56.2109 59.7356 56.2111C78.8801 56.2377 78.8801 56.2377 82.4052 59.5041C82.5496 59.6491 82.694 59.7942 82.8428 59.9436C83.0064 60.0976 83.1699 60.2516 83.3385 60.4102C84.406 61.4564 85.31 62.5737 86.1693 63.7715C86.3117 63.9699 86.3117 63.9699 86.457 64.1724C87.1185 65.1185 87.6631 66.0929 88.1885 67.1108C87.2499 67.3891 86.3102 67.6642 85.3704 67.9388C85.1094 68.0162 84.8484 68.0936 84.5796 68.1734C81.5163 69.0648 78.4302 69.5979 75.26 70.013C74.7172 70.0842 74.1749 70.1578 73.6326 70.2316C73.282 70.2782 72.9314 70.3248 72.5808 70.3711C72.4215 70.3928 72.2621 70.4146 72.098 70.4369C71.1016 70.5654 70.1351 70.6051 69.1299 70.5858C69.0876 70.73 69.0454 70.8741 69.0019 71.0227C68.5124 71.9658 67.7721 72.6223 66.9945 73.3685C66.6579 73.6964 66.3214 74.0245 65.9849 74.3526C65.813 74.5195 65.641 74.6863 65.4638 74.8583C64.9596 75.3509 64.4616 75.8481 63.9658 76.348C63.8106 76.5043 63.6555 76.6606 63.4956 76.8216C63.2011 77.1187 62.9069 77.4163 62.6133 77.7142C60.7397 79.5951 60.7397 79.5951 59.4989 79.9113C58.2033 79.9325 57.3995 79.4206 56.4856 78.6056C56.2097 78.3458 55.9359 78.0842 55.6639 77.8208C55.5202 77.6842 55.3765 77.5475 55.2285 77.4067C54.3749 76.5897 53.55 75.7562 52.7614 74.8837C52.3456 74.4422 51.9026 74.0363 51.4513 73.6264C50.5861 72.829 49.7837 71.9883 49.1416 71.0202C49.1416 70.8768 49.1416 70.7335 49.1416 70.5858C48.854 70.5698 48.854 70.5698 48.5605 70.5535C43.2781 70.234 38.0762 69.4267 32.9883 68.0474C32.7496 67.9828 32.511 67.9182 32.2651 67.8517C30.6097 67.3858 30.6097 67.3858 30.083 66.8936C31.4498 64.6419 32.9339 62.5673 34.7314 60.5952C34.9088 60.3992 35.0862 60.2032 35.2689 60.0013C38.4397 56.7633 44.7097 56.76 49.1416 56.4686C49.4302 56.4496 49.7188 56.4305 50.0161 56.411C52.9971 56.2289 55.9749 56.2078 58.9614 56.2107Z" fill="#F24386"/>
<path d="M46.5842 0.000118729C46.5842 0.0717906 46.5842 0.143462 46.5842 0.217306C46.3086 0.264901 46.0329 0.312495 45.749 0.361532C38.5846 1.64982 32.0868 4.87332 27.8307 10.5744C23.5485 16.5083 21.9864 23.3369 23.342 30.4064C23.6364 31.5948 24.0559 32.7369 24.5041 33.8814C24.5928 34.1087 24.6815 34.336 24.7729 34.5703C27.4562 40.9745 32.7485 45.616 39.3791 48.4329C42.6224 49.677 45.918 50.057 49.3733 50.3876C49.3733 50.4593 49.3733 50.531 49.3733 50.6048C44.845 50.6754 40.4518 50.6976 36.1252 49.3017C35.8673 49.2185 35.6093 49.1354 35.3435 49.0497C29.0251 46.892 24.1661 42.7766 20.8435 37.3564C20.7587 37.22 20.674 37.0837 20.5867 36.9432C19.8776 35.7568 19.3952 34.5137 18.926 33.2298C18.708 33.2266 18.49 33.2235 18.2654 33.2202C17.4518 33.2069 16.6384 33.1908 15.825 33.1728C15.4738 33.1656 15.1226 33.1595 14.7714 33.1546C14.2647 33.1472 13.7582 33.1359 13.2517 33.1238C12.9474 33.1181 12.6431 33.1124 12.3296 33.1065C11.1549 32.9754 10.4158 32.6763 9.59657 31.8739C9.09514 31.1793 9.04571 30.8256 9.04031 29.9962C9.03663 29.744 9.03295 29.4917 9.02916 29.2318C9.03031 28.9612 9.03147 28.6906 9.03265 28.4118C9.03121 28.132 9.02977 27.8522 9.02829 27.5639C9.02587 26.9726 9.02692 26.3814 9.03033 25.79C9.03432 25.0346 9.02886 24.2795 9.02068 23.5241C9.01433 22.8004 9.01668 22.0769 9.01813 21.3532C9.01505 21.0831 9.01196 20.8129 9.00879 20.5345C9.03286 18.444 9.03286 18.444 9.68186 17.6559C10.841 16.7604 11.8086 16.6564 13.2798 16.6336C13.4484 16.6294 13.617 16.6252 13.7907 16.6209C14.3258 16.608 14.8609 16.5978 15.3961 16.5878C15.7603 16.5795 16.1246 16.571 16.4888 16.5624C17.3786 16.5416 18.2685 16.5233 19.1584 16.5064C19.2642 16.2664 19.3699 16.0264 19.4789 15.7792C20.3366 13.8437 21.3036 12.1172 22.6448 10.4251C22.7877 10.2431 22.9306 10.0612 23.0778 9.87367C26.7823 5.35852 31.874 2.15135 37.7522 0.651681C38.0176 0.582529 38.2831 0.513377 38.5566 0.442129C41.2102 -0.151782 43.8722 -0.0642856 46.5842 0.000118729Z" fill="#F24386"/>
<path d="M81.9131 59.0748C81.8986 59.5634 81.8986 59.5634 81.6807 60.1607C76.7493 63.1695 68.887 62.8005 63.2058 62.8034C62.8719 62.8041 62.5379 62.8049 62.2039 62.8056C61.5084 62.8069 60.8129 62.8073 60.1173 62.8072C59.4191 62.8072 58.7209 62.8087 58.0226 62.8117C42.0852 62.8786 42.0852 62.8786 37.0557 60.5951C36.4946 60.0165 36.4946 60.0165 36.126 59.5091C37.7901 57.4357 41.3323 57.3357 43.8787 56.9828C53.1224 55.7907 74.1894 53.1498 81.9131 59.0748Z" fill="#FFAECD"/>
<path d="M30.0829 67.1108C30.522 67.1859 30.9575 67.28 31.3903 67.3823C31.6282 67.4372 31.866 67.4921 32.1111 67.5486C32.9451 67.7829 33.7049 68.0813 34.4989 68.414C34.4063 68.6528 34.3138 68.8916 34.2184 69.1376C32.6673 73.1669 31.8568 76.8607 31.8842 81.1602C31.8824 81.4447 31.8806 81.7293 31.8787 82.0225C31.8942 89.2645 35.3112 96.3736 40.5419 101.644C40.7366 101.846 40.9314 102.048 41.132 102.256C46.4828 107.558 53.8498 110.196 61.4599 110.983C61.4599 111.054 61.4599 111.126 61.4599 111.2C52.9689 111.378 44.7214 109.744 38.2177 104.25C38.0232 104.094 37.8288 103.938 37.6284 103.777C35.2019 101.804 33.2184 99.5992 31.4774 97.0827C31.3366 96.8828 31.1958 96.6829 31.0507 96.477C26.639 89.8547 25.6042 81.6117 27.2938 74.0608C28.7643 68.343 28.7643 68.343 30.0829 67.1108Z" fill="#840033"/>
<path d="M44.3015 7.58023C44.5704 7.58093 44.8393 7.58163 45.1164 7.58235C45.3949 7.58417 45.6733 7.58599 45.9603 7.58787C46.3847 7.58934 46.3847 7.58934 46.8178 7.59084C47.5149 7.59339 48.212 7.59696 48.9091 7.60144C48.9091 7.67311 48.9091 7.74478 48.9091 7.81863C48.7315 7.83487 48.5538 7.8511 48.3707 7.86783C43.893 8.38143 39.51 10.5338 36.5808 13.7735C33.693 17.3071 32.3667 20.8295 32.3636 25.2615C32.3593 25.5771 32.3593 25.5771 32.355 25.8991C32.3504 28.0284 32.6528 29.9856 33.6129 31.9264C33.6847 32.0745 33.7565 32.2225 33.8305 32.375C36.032 36.8041 39.6515 39.9683 44.4993 41.7685C45.7761 42.1821 47.1111 42.3831 48.4443 42.5686C48.4443 42.6403 48.4443 42.712 48.4443 42.7858C47.534 42.8051 46.6238 42.8164 45.7133 42.8265C45.4596 42.832 45.2058 42.8375 44.9443 42.8431C42.4269 42.864 40.1676 42.39 37.8981 41.3741C37.7322 41.3002 37.5662 41.2262 37.3952 41.1501C32.7192 38.9699 29.3875 35.1322 27.7215 30.53C26.2638 25.9113 26.6527 21.1373 29.0836 16.8486C31.7406 12.4121 35.8054 9.52758 40.9423 8.0163C42.0912 7.71815 43.1064 7.57473 44.3015 7.58023Z" fill="#424457"/>
<path d="M99.1123 16.7232C100.179 16.7071 101.246 16.6953 102.313 16.6874C102.675 16.6842 103.038 16.6797 103.4 16.6741C103.923 16.6661 104.445 16.6625 104.968 16.6596C105.129 16.6562 105.289 16.6529 105.455 16.6494C106.54 16.6491 107.267 16.8225 108.177 17.3748C108.982 18.1645 109.223 18.6522 109.23 19.7396C109.234 19.9919 109.238 20.2441 109.242 20.504C109.24 20.7746 109.239 21.0452 109.238 21.324C109.24 21.7437 109.24 21.7437 109.242 22.1719C109.245 22.7633 109.244 23.3545 109.24 23.9458C109.236 24.7013 109.242 25.4564 109.25 26.2118C109.256 26.9354 109.254 27.659 109.253 28.3826C109.256 28.6528 109.259 28.923 109.262 29.2013C109.238 31.2919 109.238 31.2919 108.589 32.08C107.411 32.9899 106.557 33.066 105.042 33.0547C104.878 33.0541 104.715 33.0535 104.547 33.0529C104.028 33.0504 103.509 33.045 102.991 33.0394C102.638 33.0373 102.285 33.0353 101.932 33.0335C101.069 33.0287 100.207 33.0212 99.3447 33.0123C99.387 32.799 99.387 32.799 99.4301 32.5813C99.5129 32.16 99.5946 31.7386 99.6755 31.317C99.7613 30.8728 99.8497 30.4291 99.9414 29.9859C100.262 28.3577 100.355 26.7798 100.347 25.1257C100.346 24.8688 100.346 24.612 100.345 24.3473C100.321 22.445 100.085 20.7388 99.5771 18.8951C99.4155 18.1724 99.2628 17.4481 99.1123 16.7232Z" fill="#840033"/>
<path d="M49.2581 19.1125C51.0141 20.0828 52.3386 21.6019 52.8607 23.4562C53.1905 25.5416 52.7318 27.1497 51.4661 28.8859C50.9741 29.4185 50.4695 29.8073 49.8392 30.189C49.7092 30.278 49.5791 30.3671 49.4452 30.4588C47.8637 31.3865 45.7387 31.3172 43.9642 30.9475C43.5638 30.7999 43.5638 30.7999 42.8665 30.4062C42.732 30.3348 42.5975 30.2634 42.4589 30.1899C41.0061 29.3425 39.9897 28.0243 39.5255 26.4833C39.1755 24.4228 39.4123 22.7786 40.6731 21.0264C42.6637 18.6895 46.3448 17.8624 49.2581 19.1125Z" fill="#7E775F"/>
<path d="M75.6021 19.4259C77.0372 20.397 78.3046 21.5661 78.659 23.2394C78.8342 25.3706 78.7567 27.2036 77.3271 28.9406C76.0599 30.2264 74.8191 30.9459 72.9519 31.1472C70.7161 31.2292 69.1058 30.9466 67.4374 29.5183C65.7553 27.8525 65.2787 26.4695 65.3483 24.187C65.5228 22.1522 66.5944 20.9081 68.2 19.5472C70.2809 18.1109 73.4329 18.2353 75.6021 19.4259Z" fill="#7E775F"/>
<path d="M49.1416 70.5859C49.3388 70.6013 49.5359 70.6167 49.7391 70.6325C52.555 70.826 55.3642 70.8362 58.1868 70.8314C59.0026 70.8303 59.8184 70.8314 60.6342 70.8328C63.4746 70.8335 66.2973 70.7897 69.1299 70.5859C68.8397 71.3542 68.5337 71.8782 67.9287 72.4634C67.7802 72.6088 67.6317 72.7542 67.4787 72.904C67.239 73.134 67.239 73.134 66.9945 73.3687C66.6579 73.6966 66.3214 74.0247 65.9849 74.3528C65.813 74.5196 65.641 74.6865 65.4638 74.8584C64.9596 75.351 64.4616 75.8483 63.9658 76.3482C63.8106 76.5045 63.6555 76.6607 63.4956 76.8218C63.2011 77.1189 62.9069 77.4164 62.6133 77.7144C60.7397 79.5952 60.7397 79.5952 59.4989 79.9114C58.2033 79.9327 57.3995 79.4208 56.4856 78.6058C56.2097 78.346 55.9359 78.0843 55.6639 77.821C55.5202 77.6843 55.3765 77.5477 55.2285 77.4069C54.3749 76.5899 53.55 75.7563 52.7614 74.8839C52.3456 74.4423 51.9026 74.0364 51.4513 73.6266C50.5861 72.8291 49.7837 71.9885 49.1416 71.0203C49.1416 70.877 49.1416 70.7336 49.1416 70.5859Z" fill="#AE1953"/>
<path d="M12.7714 16.6808C13.1275 16.6829 13.1275 16.6829 13.4909 16.6851C13.7361 16.6887 13.9813 16.6924 14.234 16.6961C14.4837 16.6981 14.7334 16.7 14.9907 16.702C15.6053 16.7071 16.2197 16.7143 16.8342 16.7233C16.137 17.1576 16.137 17.1576 15.5559 17.4427C14.8754 17.8719 14.6429 18.212 14.2776 18.8951C14.172 19.4764 14.172 19.4764 14.1837 20.0943C14.1792 20.4466 14.1792 20.4466 14.1747 20.806C14.1754 21.0576 14.1761 21.3092 14.1768 21.5684C14.175 21.9592 14.175 21.9592 14.1731 22.3578C14.1716 22.9082 14.1719 23.4586 14.1739 24.0091C14.1759 24.8504 14.1692 25.6914 14.1618 26.5327C14.1614 27.0679 14.1616 27.6031 14.1623 28.1383C14.1597 28.3895 14.1571 28.6406 14.1544 28.8994C14.1669 30.2584 14.2112 31.1188 15.2073 32.1436C15.6331 32.4243 15.6331 32.4243 16.0788 32.5508C16.4528 32.6717 16.4528 32.6717 16.8342 32.7951C16.8342 32.8668 16.8342 32.9385 16.8342 33.0123C15.9724 33.0313 15.1106 33.0428 14.2485 33.053C13.8836 33.0612 13.8836 33.0612 13.5113 33.0696C11.1812 33.0903 11.1812 33.0903 10.094 32.3607C9.29149 31.5681 9.0474 31.0843 9.04031 29.9959C9.03663 29.7437 9.03295 29.4914 9.02916 29.2315C9.03031 28.9609 9.03147 28.6903 9.03265 28.4115C9.03121 28.1317 9.02977 27.8519 9.02829 27.5636C9.02587 26.9723 9.02692 26.3811 9.03033 25.7897C9.03432 25.0343 9.02886 24.2792 9.02068 23.5238C9.01433 22.8001 9.01668 22.0766 9.01813 21.3529C9.01505 21.0827 9.01196 20.8126 9.00879 20.5342C9.03286 18.4436 9.03286 18.4436 9.68186 17.6556C10.705 16.8651 11.4567 16.6671 12.7714 16.6808Z" fill="#840033"/>
<path d="M46.2366 18.6371C46.4726 18.6331 46.4726 18.6331 46.7133 18.629C47.5762 18.6266 47.9403 18.6532 48.6771 19.1122C48.5423 19.1861 48.4074 19.26 48.2685 19.3362C46.5858 20.3118 45.3426 21.4426 44.7259 23.2388C44.4951 25.2256 44.5561 27.0239 45.888 28.6684C46.4672 29.2333 47.0782 29.72 47.7474 30.1888C47.9197 30.31 48.0919 30.4312 48.2694 30.5561C48.404 30.6499 48.5385 30.7437 48.6771 30.8403C47.2388 31.2883 44.9984 31.3438 43.5638 30.7996C43.3337 30.6697 43.1036 30.5398 42.8665 30.4059C42.732 30.3345 42.5975 30.2632 42.4589 30.1896C41.0061 29.3422 39.9897 28.024 39.5255 26.483C39.1755 24.4225 39.4123 22.7783 40.6731 21.0262C42.0914 19.3611 44.0197 18.6391 46.2366 18.6371Z" fill="#D6A39C"/>
<path d="M73.7787 18.6782C74.0088 18.8216 74.2389 18.9649 74.476 19.1126C74.2486 19.2394 74.2486 19.2394 74.0166 19.3688C72.367 20.3555 71.2085 21.4615 70.6101 23.2426C70.2252 25.1863 70.6241 27.027 71.7695 28.6926C72.5385 29.5942 73.3782 30.1107 74.476 30.6236C73.2445 31.3907 71.7209 31.1847 70.2924 31.0579C68.1433 30.5064 66.7937 29.0374 65.6439 27.325C65.1905 25.7097 65.058 23.6964 65.8228 22.1397C66.7742 20.7397 67.9748 19.3929 69.6714 18.797C71.0167 18.5397 72.4166 18.547 73.7787 18.6782Z" fill="#D6A39C"/>
<path d="M104.226 16.7234C104.635 16.7164 105.044 16.7115 105.454 16.7073C105.682 16.7043 105.91 16.7013 106.145 16.6982C107.269 16.7427 107.912 17.1141 108.671 17.8626C109.176 18.5572 109.225 18.9086 109.23 19.7398C109.234 19.9921 109.238 20.2443 109.242 20.5042C109.24 20.9101 109.24 20.9101 109.238 21.3242C109.24 21.7439 109.24 21.7439 109.242 22.1721C109.245 22.7635 109.244 23.3547 109.24 23.946C109.236 24.7015 109.242 25.4566 109.25 26.212C109.256 26.9356 109.254 27.6592 109.253 28.3828C109.256 28.653 109.259 28.9232 109.262 29.2015C109.238 31.2913 109.238 31.2913 108.549 32.0886C107.316 33.0871 106.258 33.0699 104.69 33.0125C104.807 31.8646 104.968 30.7706 105.271 29.6529C106.21 25.2136 105.414 21.0489 104.226 16.7234Z" fill="#F24386"/>
<path d="M49.1416 70.5859C54.3285 70.6416 54.3285 70.6416 55.6703 71.4564C56.1123 72.0134 56.4533 72.5856 56.8115 73.1922C57.1911 73.5745 57.5841 73.9455 57.9882 74.3053C59.4003 75.5966 60.6686 76.9818 61.9248 78.4047C61.1497 79.1246 60.5318 79.6426 59.4698 79.9386C57.7662 79.9096 56.7777 78.8993 55.6639 77.821C55.5202 77.6843 55.3765 77.5477 55.2285 77.4069C54.3749 76.5899 53.55 75.7563 52.7614 74.8839C52.3456 74.4423 51.9026 74.0364 51.4513 73.6266C50.5861 72.8291 49.7837 71.9885 49.1416 71.0203C49.1416 70.877 49.1416 70.7336 49.1416 70.5859Z" fill="#5C0627"/>
<path d="M36.3584 59.5093C36.4582 59.6425 36.5579 59.7758 36.6607 59.9131C37.143 60.4808 37.5384 60.621 38.2614 60.8667C38.4708 60.9395 38.6802 61.0123 38.896 61.0873C39.0557 61.1399 39.2154 61.1925 39.3799 61.2468C39.2946 61.3492 39.2092 61.4516 39.1213 61.5572C38.2228 62.6536 37.4261 63.784 36.6635 64.9661C36.5536 65.1338 36.4438 65.3015 36.3307 65.4743C35.7523 66.3642 35.2122 67.2562 34.7314 68.1968C33.0843 68.0784 31.6337 67.6301 30.083 67.1108C30.871 65.4289 34.0884 59.5093 36.3584 59.5093Z" fill="#5C0627"/>
<path d="M46.585 56.9032C45.8877 57.3375 45.8877 57.3375 45.1178 57.6362C44.2879 57.9678 43.5591 58.3051 42.8662 58.8579C42.749 59.6248 42.8371 60.0793 43.0986 60.8125C43.6056 61.0351 43.6056 61.0351 44.2607 61.2469C44.8857 61.527 45.503 61.8209 46.1201 62.1157C46.1201 62.1873 46.1201 62.259 46.1201 62.3329C43.2192 62.2371 39.2859 61.9638 36.8232 60.3782C36.3439 59.7809 36.3439 59.7809 36.126 59.2922C37.9002 57.8457 40.1965 57.5389 42.4595 57.1747C42.6296 57.1469 42.7996 57.1192 42.9749 57.0906C44.1896 56.9091 45.3551 56.8805 46.585 56.9032Z" fill="#F24386"/>
<g filter="url(#filter0_f_150_298)">
<ellipse cx="59.02" cy="125.186" rx="43.9497" ry="5.6648" fill="#D7D7D7"/>
</g>
</g>
<defs>
<filter id="filter0_f_150_298" x="-0.329687" y="104.121" width="118.699" height="42.1296" filterUnits="userSpaceOnUse" color-interpolation-filters="sRGB">
<feFlood flood-opacity="0" result="BackgroundImageFix"/>
<feBlend mode="normal" in="SourceGraphic" in2="BackgroundImageFix" result="shape"/>
<feGaussianBlur stdDeviation="7.7" result="effect1_foregroundBlur_150_298"/>
</filter>
<clipPath id="clip0_150_298">
<rect width="119" height="149" fill="white"/>
</clipPath>
</defs>
</svg>
