<svg width="43" height="44" viewBox="0 0 43 44" fill="none" xmlns="http://www.w3.org/2000/svg">
<path d="M21.5003 1.57259L21.5003 28.8565M21.5003 38.4871V42.4268M21.5003 38.4871C20.2235 38.4871 18.999 37.9799 18.0962 37.0771C17.1934 36.1742 16.6862 34.9497 16.6862 33.6729C16.6862 32.3961 17.1934 31.1716 18.0962 30.2688C18.999 29.366 20.2235 28.8588 21.5003 28.8588C22.7771 28.8588 24.0016 29.366 24.9045 30.2688C25.8073 31.1716 26.3145 32.3961 26.3145 33.6729C26.3145 34.9497 25.8073 36.1742 24.9045 37.0771C24.0016 37.9799 22.7771 38.4871 21.5003 38.4871ZM36.0908 1.57259V14.2661M36.0908 14.2661C37.3679 14.2661 38.5938 14.7745 39.4968 15.6776C40.3998 16.5806 40.9072 17.8054 40.9072 19.0825C40.9072 20.3593 40.3977 21.5838 39.4949 22.4866C38.5921 23.3894 37.3676 23.8966 36.0908 23.8966M36.0908 14.2661C34.8137 14.2661 33.59 14.7745 32.687 15.6776C31.7839 16.5806 31.2766 17.8054 31.2766 19.0825C31.2766 20.3593 31.7838 21.5838 32.6867 22.4866C33.5895 23.3894 34.814 23.8966 36.0908 23.8966M36.0908 23.8966V42.4268M6.90987 1.57259L6.90987 8.42946M6.90987 18.06L6.90987 42.4268M6.90987 18.06C5.63307 18.06 4.40857 17.5528 3.50574 16.65C2.60291 15.7471 2.0957 14.5226 2.0957 13.2458C2.0957 12.6136 2.22023 11.9876 2.46216 11.4035C2.70409 10.8195 3.0587 10.2887 3.50574 9.84171C3.95278 9.39467 4.48349 9.04006 5.06757 8.79813C5.65165 8.55619 6.27766 8.43167 6.90987 8.43167C7.54208 8.43167 8.16809 8.55619 8.75217 8.79813C9.33625 9.04006 9.86696 9.39467 10.314 9.84171C10.761 10.2887 11.1156 10.8195 11.3576 11.4035C11.5995 11.9876 11.724 12.6136 11.724 13.2458C11.724 14.5226 11.2168 15.7471 10.314 16.65C9.41117 17.5528 8.18667 18.06 6.90987 18.06Z" stroke="black" stroke-width="3" stroke-miterlimit="10" stroke-linecap="round"/>
</svg>
