<svg width="21" height="17" viewBox="0 0 21 17" fill="none" xmlns="http://www.w3.org/2000/svg">
<path d="M18.4976 8.82764V3.78888H20.48V9.83539H18.4976M18.4976 13.8664H20.48V11.8509H18.4976M8.58575 9.83539C11.2322 9.83539 16.5153 11.1858 16.5153 13.8664V16.8897H0.65625V13.8664C0.65625 11.1858 5.93928 9.83539 8.58575 9.83539ZM8.58575 0.765625C9.63727 0.765625 10.6457 1.19032 11.3893 1.94628C12.1328 2.70224 12.5505 3.72754 12.5505 4.79663C12.5505 5.86572 12.1328 6.89103 11.3893 7.64699C10.6457 8.40295 9.63727 8.82764 8.58575 8.82764C7.53424 8.82764 6.52579 8.40295 5.78225 7.64699C5.03872 6.89103 4.621 5.86572 4.621 4.79663C4.621 3.72754 5.03872 2.70224 5.78225 1.94628C6.52579 1.19032 7.53424 0.765625 8.58575 0.765625ZM8.58575 11.7501C5.64193 11.7501 2.53951 13.2214 2.53951 13.8664V14.9749H14.632V13.8664C14.632 13.2214 11.5296 11.7501 8.58575 11.7501ZM8.58575 2.68035C8.03371 2.68035 7.50427 2.90332 7.11392 3.3002C6.72356 3.69708 6.50426 4.23536 6.50426 4.79663C6.50426 5.3579 6.72356 5.89619 7.11392 6.29307C7.50427 6.68995 8.03371 6.91291 8.58575 6.91291C9.1378 6.91291 9.66724 6.68995 10.0576 6.29307C10.448 5.89619 10.6673 5.3579 10.6673 4.79663C10.6673 4.23536 10.448 3.69708 10.0576 3.3002C9.66724 2.90332 9.1378 2.68035 8.58575 2.68035Z" fill="black"/>
</svg>
