<svg width="82" height="101" viewBox="0 0 82 101" fill="none" xmlns="http://www.w3.org/2000/svg">
<g clip-path="url(#clip0_150_504)">
<path d="M31.0279 -0.0595993C31.2634 -0.0604417 31.4989 -0.061468 31.7344 -0.0626612C32.3666 -0.0652744 32.9988 -0.0651341 33.631 -0.0642891C34.1624 -0.0638298 34.6938 -0.0647353 35.2253 -0.0656198C36.4811 -0.0676787 37.7369 -0.0674652 38.9927 -0.0657814C40.2799 -0.0640936 41.567 -0.0661614 42.8541 -0.0701092C43.9668 -0.0733917 45.0795 -0.0743437 46.1922 -0.073484C46.8534 -0.0729925 47.5145 -0.0733129 48.1757 -0.0758765C54.2102 -0.097032 59.3489 1.01286 63.7897 5.0238C65.6 6.72078 67.1463 8.91064 67.9623 11.1887C68.1155 11.1908 68.2686 11.193 68.4265 11.1952C68.9979 11.2038 69.5693 11.2151 70.1407 11.2273C70.3874 11.2322 70.6341 11.2363 70.8809 11.2397C71.2367 11.2447 71.5925 11.2524 71.9483 11.2606C72.1122 11.262 72.1122 11.262 72.2795 11.2634C73.1997 11.2891 73.8304 11.483 74.4707 12.1078C74.8121 12.5786 74.8457 12.8183 74.8494 13.3806C74.8519 13.5516 74.8544 13.7226 74.857 13.8987C74.8558 14.1739 74.8558 14.1739 74.8546 14.4546C74.8556 14.6442 74.8566 14.8339 74.8576 15.0293C74.8592 15.4302 74.8585 15.8309 74.8562 16.2318C74.8535 16.7438 74.8572 17.2557 74.8628 17.7678C74.8671 18.2583 74.8655 18.7487 74.8645 19.2393C74.8666 19.4224 74.8687 19.6055 74.8709 19.7942C74.8545 21.2113 74.8545 21.2113 74.4127 21.7455C73.6196 22.3557 73.0176 22.4158 71.9983 22.4384C71.8315 22.4427 71.8314 22.4427 71.6612 22.4471C71.3083 22.4558 70.9553 22.4627 70.6023 22.4695C70.362 22.4751 70.1217 22.4809 69.8814 22.4867C69.2945 22.5008 68.7075 22.5132 68.1205 22.5247C68.0623 22.6715 68.0041 22.8184 67.9441 22.9697C67.1262 25.007 66.0001 26.7569 64.4818 28.4135C64.4125 28.4959 64.3431 28.5783 64.2717 28.6631C61.6708 31.7451 57.1779 33.6196 53.0912 34.1552C51.7618 34.2851 50.4439 34.3243 49.108 34.3238C48.9088 34.3243 48.7097 34.3248 48.5045 34.3253C47.9638 34.3266 47.4231 34.3269 46.8824 34.327C46.5427 34.3271 46.2031 34.3274 45.8634 34.3278C44.6731 34.3292 43.4828 34.3298 42.2926 34.3297C41.1917 34.3296 40.0909 34.3311 38.9901 34.3335C38.038 34.3354 37.0858 34.3362 36.1337 34.3361C35.5682 34.336 35.0027 34.3364 34.4371 34.338C28.0013 34.3547 28.0013 34.3547 25.0892 33.4191C24.9137 33.3627 24.7381 33.3063 24.5572 33.2483C20.2564 31.7856 16.949 28.996 14.6874 25.3219C14.6297 25.2295 14.572 25.1371 14.5126 25.0418C14.0299 24.2377 13.7015 23.395 13.3822 22.5247C13.2338 22.5226 13.0854 22.5204 12.9326 22.5182C12.3788 22.5092 11.8251 22.4983 11.2714 22.4861C11.0324 22.4812 10.7933 22.4771 10.5543 22.4737C10.2094 22.4687 9.86465 22.461 9.51984 22.4528C9.31272 22.449 9.1056 22.4451 8.8922 22.4411C8.09267 22.3522 7.58956 22.1495 7.03192 21.6056C6.69061 21.1348 6.65697 20.895 6.65329 20.3328C6.65079 20.1618 6.64828 19.9908 6.6457 19.8147C6.64649 19.6312 6.64727 19.4478 6.64808 19.2588C6.6471 19.0692 6.64612 18.8795 6.64511 18.6841C6.64346 18.2832 6.64418 17.8825 6.6465 17.4816C6.64921 16.9695 6.6455 16.4577 6.63993 15.9456C6.63561 15.4551 6.63721 14.9647 6.63819 14.4741C6.63609 14.291 6.634 14.1079 6.63184 13.9192C6.64822 12.5021 6.64822 12.5021 7.08997 11.9679C7.87899 11.3609 8.53762 11.2904 9.53899 11.2749C9.65375 11.2721 9.76851 11.2692 9.88675 11.2663C10.251 11.2576 10.6152 11.2507 10.9795 11.2439C11.2274 11.2383 11.4753 11.2325 11.7232 11.2266C12.3289 11.2126 12.9347 11.2002 13.5404 11.1887C13.6124 11.026 13.6844 10.8634 13.7585 10.6958C14.3424 9.38378 15.0005 8.21347 15.9135 7.0665C16.0107 6.94314 16.108 6.81979 16.2082 6.69269C19.7879 2.34764 25.1623 -0.078918 31.0279 -0.0595993Z" fill="#FF5395"/>
<path d="M40.6333 38.1027C40.8072 38.1028 40.9811 38.1029 41.1603 38.103C54.1915 38.121 54.1915 38.121 56.5908 40.3352C56.6891 40.4335 56.7874 40.5318 56.8887 40.6331C57.0001 40.7374 57.1114 40.8418 57.2261 40.9494C61.2033 44.831 63.05 50.3001 62.94 55.584C62.8567 57.7414 62.4412 59.811 61.6348 61.8329C61.5957 61.9338 61.5565 62.0346 61.5162 62.1385C59.4524 67.3902 55.1812 71.2797 49.8511 73.7152C48.8422 74.1414 47.8177 74.4699 46.7538 74.7515C46.6438 74.7808 46.5338 74.8101 46.4205 74.8402C44.5595 75.3063 42.7131 75.4329 40.7915 75.4232C40.6803 75.423 40.5691 75.4227 40.4545 75.4224C35.4233 75.402 30.2912 73.844 26.5137 70.6662C26.3814 70.5604 26.249 70.4547 26.1126 70.3458C24.461 69.0084 23.1109 67.5136 21.9258 65.8079C21.83 65.6724 21.7341 65.5369 21.6354 65.3972C18.6302 60.905 17.9332 55.324 19.0782 50.2024C19.2828 49.3972 19.559 48.6217 19.8692 47.8469C19.9092 47.7452 19.9491 47.6436 19.9903 47.5389C20.9581 45.1134 22.3408 43.0412 24.1407 41.0747C24.2614 40.9419 24.3821 40.809 24.5065 40.6722C26.6647 38.4773 30.9326 38.475 33.9493 38.2775C34.1457 38.2646 34.3421 38.2517 34.5445 38.2385C36.5736 38.115 38.6005 38.1008 40.6333 38.1027Z" fill="#FFAECD"/>
<path d="M31.0279 -0.0595993C31.2634 -0.0604417 31.4989 -0.061468 31.7344 -0.0626612C32.3666 -0.0652744 32.9988 -0.0651341 33.631 -0.0642891C34.1624 -0.0638298 34.6938 -0.0647353 35.2253 -0.0656198C36.4811 -0.0676787 37.7369 -0.0674652 38.9927 -0.0657814C40.2799 -0.0640936 41.567 -0.0661614 42.8541 -0.0701092C43.9668 -0.0733917 45.0795 -0.0743437 46.1922 -0.073484C46.8534 -0.0729925 47.5145 -0.0733129 48.1757 -0.0758765C54.2102 -0.097032 59.3489 1.01286 63.7897 5.0238C65.6 6.72078 67.1463 8.91064 67.9623 11.1887C68.1155 11.1908 68.2686 11.193 68.4265 11.1952C68.9979 11.2038 69.5693 11.2151 70.1407 11.2273C70.3874 11.2322 70.6341 11.2363 70.8809 11.2397C71.2367 11.2447 71.5924 11.2524 71.9483 11.2606C72.1122 11.262 72.1122 11.262 72.2795 11.2634C73.1997 11.2891 73.8304 11.483 74.4707 12.1078C74.8121 12.5786 74.8457 12.8183 74.8494 13.3806C74.8519 13.5516 74.8544 13.7226 74.857 13.8987C74.8558 14.1739 74.8558 14.1739 74.8546 14.4546C74.8556 14.6442 74.8566 14.8339 74.8576 15.0293C74.8592 15.4302 74.8585 15.8309 74.8562 16.2318C74.8535 16.7438 74.8572 17.2557 74.8628 17.7678C74.8671 18.2583 74.8655 18.7487 74.8645 19.2393C74.8666 19.4224 74.8687 19.6055 74.8709 19.7942C74.8545 21.2113 74.8545 21.2113 74.4127 21.7455C73.6196 22.3557 73.0175 22.4158 71.9983 22.4384C71.8314 22.4427 71.8314 22.4427 71.6612 22.4471C71.3083 22.4558 70.9553 22.4627 70.6023 22.4695C70.362 22.4751 70.1217 22.4809 69.8814 22.4868C69.2945 22.5008 68.7075 22.5132 68.1205 22.5247C68.0623 22.6715 68.0041 22.8184 67.9441 22.9697C67.1262 25.007 66.0001 26.7569 64.4818 28.4135C64.4125 28.4959 64.3431 28.5783 64.2717 28.6631C61.6708 31.745 57.1779 33.6196 53.0912 34.1552C51.7618 34.2851 50.4439 34.3243 49.108 34.3238C48.9088 34.3243 48.7097 34.3248 48.5045 34.3253C47.9638 34.3266 47.4231 34.3269 46.8824 34.327C46.5427 34.3271 46.2031 34.3274 45.8634 34.3278C44.6731 34.3292 43.4828 34.3298 42.2926 34.3297C41.1917 34.3296 40.0909 34.3311 38.9901 34.3335C38.038 34.3354 37.0858 34.3362 36.1337 34.3361C35.5682 34.336 35.0027 34.3364 34.4371 34.338C28.0013 34.3547 28.0013 34.3547 25.0892 33.4191C24.9137 33.3627 24.7381 33.3063 24.5572 33.2483C20.2564 31.7856 16.949 28.996 14.6874 25.3219C14.6297 25.2295 14.572 25.1371 14.5126 25.0418C14.0299 24.2377 13.7015 23.395 13.3822 22.5247C13.2338 22.5226 13.0854 22.5204 12.9326 22.5182C12.3788 22.5092 11.8251 22.4983 11.2714 22.4861C11.0324 22.4812 10.7933 22.4771 10.5543 22.4737C10.2094 22.4687 9.86465 22.461 9.51984 22.4528C9.31272 22.449 9.1056 22.4451 8.8922 22.4411C8.09267 22.3522 7.58956 22.1495 7.03192 21.6056C6.69061 21.1348 6.65697 20.895 6.65329 20.3328C6.65079 20.1618 6.64828 19.9908 6.6457 19.8147C6.64649 19.6312 6.64727 19.4478 6.64808 19.2588C6.6471 19.0692 6.64612 18.8795 6.64511 18.6841C6.64346 18.2832 6.64418 17.8825 6.6465 17.4816C6.64921 16.9695 6.6455 16.4577 6.63993 15.9456C6.63561 15.4551 6.63721 14.9647 6.63819 14.4741C6.63609 14.291 6.634 14.1079 6.63184 13.9192C6.64822 12.5021 6.64822 12.5021 7.08997 11.9679C7.87899 11.3609 8.53762 11.2904 9.53899 11.2749C9.65375 11.2721 9.76851 11.2692 9.88675 11.2663C10.251 11.2576 10.6152 11.2507 10.9795 11.2439C11.2274 11.2383 11.4753 11.2325 11.7232 11.2266C12.3289 11.2126 12.9347 11.2002 13.5404 11.1887C13.6124 11.026 13.6844 10.8634 13.7585 10.6958C14.3424 9.38378 15.0005 8.21347 15.9135 7.0665C16.0107 6.94314 16.108 6.81979 16.2082 6.69269C19.7879 2.34764 25.1623 -0.078918 31.0279 -0.0595993ZM25.9791 6.30279C25.8739 6.35333 25.7687 6.40387 25.6603 6.45594C24.815 6.87325 24.0702 7.36425 23.349 7.94982C23.1957 8.06369 23.0423 8.17756 22.8843 8.29487C20.658 10.0243 19.1424 13.0182 18.8359 15.6617C18.5292 18.9855 19.4801 22.2282 21.7769 24.825C23.0387 26.1825 24.5052 27.2444 26.2362 28.0363C26.3799 28.1038 26.3799 28.1038 26.5264 28.1728C29.1241 29.2763 31.9318 29.2372 34.7254 29.2239C35.2725 29.2218 35.8196 29.2228 36.3666 29.2233C37.2842 29.2237 38.2018 29.2218 39.1194 29.2183C40.1726 29.2144 41.2258 29.2142 42.2791 29.2159C43.3023 29.2175 44.3256 29.2166 45.3489 29.2145C45.7798 29.2137 46.2108 29.2136 46.6417 29.2144C51.728 29.218 55.6052 28.5718 59.3266 25.1143C60.1798 24.2766 60.7899 23.42 61.3178 22.3775C61.4251 22.1657 61.4251 22.1657 61.5347 21.9496C62.8449 19.1999 63.12 15.948 61.9506 13.1026C60.504 9.83277 58.1102 7.37267 54.604 5.97154C52.7586 5.25989 51.0839 5.13061 49.1117 5.12656C48.9054 5.1256 48.6992 5.12463 48.4867 5.12363C47.8065 5.12056 47.1263 5.11901 46.446 5.11754C46.2104 5.11695 45.9748 5.11634 45.7392 5.11572C44.6316 5.11292 43.5239 5.11083 42.4162 5.1096C41.1442 5.10816 39.8721 5.10429 38.6 5.09834C37.6125 5.09387 36.6249 5.09171 35.6374 5.09123C35.0495 5.09088 34.4618 5.0896 33.874 5.08586C29.7943 5.05867 29.7943 5.05867 25.9791 6.30279Z" fill="#F4B3B3"/>
<path d="M40.6333 38.1027C40.8072 38.1028 40.9811 38.1029 41.1602 38.103C54.1914 38.121 54.1914 38.121 56.5908 40.3352C56.6891 40.4335 56.7874 40.5318 56.8887 40.6331C57 40.7374 57.1114 40.8418 57.2261 40.9494C57.9527 41.6585 58.568 42.4159 59.153 43.2278C59.2499 43.3623 59.2499 43.3623 59.3488 43.4996C59.799 44.1409 60.1697 44.8014 60.5273 45.4914C59.8885 45.68 59.2489 45.8665 58.6091 46.0526C58.4315 46.1051 58.2539 46.1576 58.0709 46.2116C55.9858 46.8159 53.8852 47.1773 51.7273 47.4586C51.3578 47.5069 50.9887 47.5568 50.6196 47.6068C50.3809 47.6384 50.1423 47.67 49.9036 47.7014C49.7952 47.7161 49.6867 47.7308 49.575 47.746C48.8968 47.8331 48.2389 47.86 47.5547 47.8469C47.5259 47.9446 47.4972 48.0424 47.4676 48.1431C47.1344 48.7823 46.6305 49.2273 46.1012 49.7332C45.8721 49.9555 45.643 50.1778 45.414 50.4003C45.2969 50.5134 45.1799 50.6265 45.0593 50.743C44.7161 51.0769 44.3771 51.414 44.0396 51.7528C43.934 51.8588 43.8284 51.9647 43.7196 52.0738C43.5191 52.2753 43.3189 52.4769 43.119 52.6789C41.8437 53.9538 41.8437 53.9538 40.9991 54.1682C40.1173 54.1826 39.5702 53.8356 38.9481 53.2831C38.7603 53.107 38.5739 52.9297 38.3888 52.7512C38.291 52.6586 38.1932 52.5659 38.0924 52.4705C37.5114 51.9167 36.9499 51.3516 36.4131 50.7603C36.1301 50.461 35.8286 50.1858 35.5214 49.908C34.9325 49.3674 34.3863 48.7976 33.9492 48.1413C33.9492 48.0442 33.9492 47.947 33.9492 47.8469C33.7534 47.8361 33.7534 47.8361 33.5537 47.825C29.9581 47.6084 26.4173 47.0612 22.9541 46.1262C22.7917 46.0825 22.6292 46.0387 22.4619 45.9936C21.3351 45.6778 21.3351 45.6778 20.9766 45.3441C21.9069 43.8178 22.9171 42.4116 24.1406 41.0747C24.2614 40.9419 24.3821 40.809 24.5065 40.6722C26.6647 38.4773 30.9326 38.475 33.9492 38.2775C34.1457 38.2646 34.3421 38.2517 34.5445 38.2385C36.5735 38.115 38.6005 38.1008 40.6333 38.1027Z" fill="#F24386"/>
<path d="M32.2084 -5.71571e-05C32.2084 0.0485258 32.2084 0.0971087 32.2084 0.147164C32.0208 0.179426 31.8332 0.211688 31.6398 0.244928C26.7633 1.11819 22.3404 3.30325 19.4434 7.16777C16.5286 11.19 15.4654 15.8189 16.3881 20.6109C16.5885 21.4165 16.874 22.1907 17.1791 22.9664C17.2395 23.1205 17.2998 23.2746 17.362 23.4334C19.1885 27.7745 22.7908 30.9208 27.3041 32.8302C29.5117 33.6735 31.7549 33.9311 34.1068 34.1552C34.1068 34.2038 34.1068 34.2524 34.1068 34.3024C31.0246 34.3503 28.0342 34.3654 25.0892 33.4191C24.9137 33.3628 24.7381 33.3064 24.5572 33.2483C20.2564 31.7857 16.949 28.9961 14.6874 25.322C14.6297 25.2295 14.572 25.1371 14.5126 25.0419C14.0299 24.2377 13.7015 23.395 13.3822 22.5248C13.2338 22.5226 13.0854 22.5205 12.9326 22.5183C12.3788 22.5092 11.8251 22.4983 11.2714 22.4861C11.0324 22.4813 10.7933 22.4771 10.5543 22.4738C10.2094 22.4688 9.86465 22.4611 9.51984 22.4529C9.31272 22.449 9.1056 22.4452 8.8922 22.4412C8.09267 22.3523 7.58956 22.1496 7.03192 21.6056C6.69061 21.1348 6.65697 20.895 6.65329 20.3329C6.65079 20.1619 6.64828 19.9909 6.6457 19.8147C6.64649 19.6313 6.64727 19.4479 6.64808 19.2589C6.6471 19.0692 6.64612 18.8796 6.64511 18.6841C6.64346 18.2833 6.64418 17.8825 6.6465 17.4817C6.64921 16.9696 6.6455 16.4578 6.63993 15.9457C6.63561 15.4552 6.63721 14.9647 6.63819 14.4742C6.63609 14.2911 6.634 14.1079 6.63184 13.9193C6.64822 12.5021 6.64822 12.5021 7.08997 11.9679C7.87899 11.3609 8.53762 11.2905 9.53899 11.275C9.65375 11.2722 9.76851 11.2693 9.88675 11.2664C10.251 11.2576 10.6152 11.2508 10.9795 11.244C11.2274 11.2383 11.4753 11.2326 11.7232 11.2267C12.3289 11.2126 12.9347 11.2002 13.5404 11.1887C13.6124 11.0261 13.6844 10.8634 13.7585 10.6958C14.3424 9.38384 15.0005 8.21352 15.9135 7.06655C16.0107 6.9432 16.108 6.81984 16.2082 6.69275C18.7297 3.63215 22.1956 1.45816 26.1967 0.441606C26.3774 0.394731 26.558 0.347856 26.7442 0.299561C28.5504 -0.103023 30.3624 -0.0437138 32.2084 -5.71571e-05Z" fill="#F24386"/>
<path d="M56.2559 40.0438C56.246 40.375 56.246 40.375 56.0977 40.7799C52.741 42.8194 47.3894 42.5693 43.5224 42.5712C43.295 42.5717 43.0677 42.5722 42.8403 42.5727C42.3669 42.5736 41.8935 42.5739 41.4201 42.5738C40.9448 42.5738 40.4696 42.5748 39.9943 42.5768C29.1461 42.6222 29.1461 42.6222 25.7227 41.0743C25.3407 40.6821 25.3407 40.6821 25.0898 40.3382C26.2226 38.9327 28.6336 38.8649 30.3669 38.6257C36.6588 37.8176 50.9986 36.0275 56.2559 40.0438Z" fill="#FFAECD"/>
<path d="M20.9765 45.4912C21.2754 45.5421 21.5718 45.6059 21.8664 45.6752C22.0283 45.7124 22.1902 45.7496 22.3571 45.788C22.9247 45.9468 23.4419 46.149 23.9824 46.3745C23.9193 46.5364 23.8563 46.6983 23.7914 46.8651C22.7356 49.5963 22.1839 52.1002 22.2026 55.0146C22.2013 55.2075 22.2001 55.4004 22.1989 55.5991C22.2094 60.5081 24.5353 65.3271 28.0956 68.8994C28.2282 69.0364 28.3608 69.1734 28.4973 69.3146C32.1395 72.9087 37.154 74.6966 42.3339 75.2299C42.3339 75.2784 42.3339 75.327 42.3339 75.3771C36.5544 75.498 30.9405 74.3901 26.5136 70.666C26.3813 70.5603 26.2489 70.4546 26.1125 70.3457C24.4609 69.0082 23.1108 67.5135 21.9257 65.8077C21.8299 65.6722 21.734 65.5367 21.6353 65.3971C18.6323 60.9082 17.928 55.3207 19.0781 50.2023C20.079 46.3264 20.079 46.3264 20.9765 45.4912Z" fill="#840033"/>
<path d="M30.6551 5.13829C30.8382 5.13876 31.0212 5.13924 31.2098 5.13972C31.3993 5.14096 31.5889 5.14219 31.7842 5.14346C32.0731 5.14446 32.0731 5.14446 32.3679 5.14548C32.8424 5.14721 33.3169 5.14963 33.7914 5.15266C33.7914 5.20125 33.7914 5.24983 33.7914 5.29988C33.6704 5.31089 33.5495 5.3219 33.4249 5.33324C30.377 5.68138 27.3936 7.14039 25.3998 9.33639C23.4342 11.7317 22.5314 14.1193 22.5293 17.1236C22.5264 17.3375 22.5264 17.3375 22.5234 17.5557C22.5203 18.9992 22.7262 20.3258 23.3796 21.6414C23.4285 21.7418 23.4774 21.8421 23.5278 21.9455C25.0263 24.9478 27.49 27.0926 30.7898 28.3129C31.6588 28.5933 32.5675 28.7295 33.475 28.8553C33.475 28.9038 33.475 28.9524 33.475 29.0025C32.8554 29.0155 32.2358 29.0232 31.6161 29.0301C31.4434 29.0338 31.2706 29.0375 31.0927 29.0413C29.3791 29.0554 27.8413 28.7342 26.2965 28.0455C26.1835 27.9954 26.0706 27.9453 25.9542 27.8937C22.7713 26.4158 20.5036 23.8145 19.3696 20.6948C18.3773 17.564 18.6421 14.328 20.2967 11.4208C22.1052 8.41356 24.872 6.45831 28.3686 5.43388C29.1506 5.23178 29.8416 5.13456 30.6551 5.13829Z" fill="#424457"/>
<path d="M67.9629 11.3357C68.689 11.3247 69.4151 11.3167 70.1413 11.3114C70.388 11.3092 70.6347 11.3062 70.8815 11.3024C71.2373 11.297 71.593 11.2945 71.9489 11.2926C72.0582 11.2903 72.1675 11.288 72.2801 11.2856C73.0185 11.2854 73.5135 11.403 74.1328 11.7773C74.6812 12.3127 74.8452 12.6432 74.85 13.3804C74.8525 13.5513 74.855 13.7223 74.8576 13.8985C74.8568 14.0819 74.856 14.2654 74.8552 14.4544C74.8567 14.7388 74.8567 14.7388 74.8582 15.0291C74.8598 15.4299 74.8591 15.8307 74.8568 16.2315C74.8541 16.7436 74.8578 17.2555 74.8634 17.7675C74.8677 18.258 74.8661 18.7485 74.8651 19.239C74.8672 19.4222 74.8693 19.6053 74.8715 19.794C74.8551 21.2111 74.8551 21.2111 74.4133 21.7453C73.6116 22.3621 73.0301 22.4137 71.9989 22.406C71.8877 22.4056 71.7764 22.4052 71.6618 22.4048C71.3088 22.4031 70.9559 22.3994 70.6029 22.3957C70.3626 22.3942 70.1223 22.3928 69.882 22.3916C69.295 22.3884 68.7081 22.3833 68.1211 22.3773C68.1498 22.2327 68.1498 22.2327 68.1792 22.0851C68.2355 21.7996 68.2912 21.5139 68.3462 21.2281C68.4047 20.927 68.4648 20.6262 68.5272 20.3258C68.7458 19.2221 68.809 18.1526 68.8033 17.0313C68.8029 16.8572 68.8025 16.6831 68.802 16.5037C68.7855 15.2142 68.625 14.0577 68.2793 12.8079C68.1692 12.318 68.0653 11.827 67.9629 11.3357Z" fill="#840033"/>
<path d="M34.0282 12.9556C35.2234 13.6134 36.125 14.6432 36.4804 15.9001C36.7049 17.3136 36.3927 18.4037 35.5312 19.5806C35.1963 19.9416 34.8528 20.2052 34.4237 20.4639C34.3352 20.5243 34.2467 20.5846 34.1555 20.6468C33.079 21.2756 31.6326 21.2287 30.4248 20.978C30.1523 20.878 30.1523 20.878 29.6776 20.6111C29.5861 20.5628 29.4945 20.5144 29.4002 20.4645C28.4113 19.8901 27.7194 18.9965 27.4035 17.952C27.1652 16.5553 27.3264 15.4408 28.1846 14.253C29.5396 12.6689 32.0452 12.1083 34.0282 12.9556Z" fill="#7E775F"/>
<path d="M51.9605 13.1681C52.9373 13.8264 53.7999 14.6189 54.0412 15.7531C54.1605 17.1978 54.1077 18.4402 53.1346 19.6177C52.2721 20.4892 51.4275 20.977 50.1566 21.1135C48.6347 21.169 47.5386 20.9775 46.403 20.0093C45.258 18.8802 44.9336 17.9427 44.981 16.3955C45.0998 15.0162 45.8292 14.1729 46.9221 13.2504C48.3385 12.2767 50.484 12.3611 51.9605 13.1681Z" fill="#7E775F"/>
<path d="M33.9492 47.8467C34.0834 47.8571 34.2176 47.8675 34.3559 47.8782C36.2726 48.0094 38.1848 48.0163 40.106 48.0131C40.6613 48.0123 41.2166 48.0131 41.7719 48.014C43.7053 48.0145 45.6266 47.9848 47.5547 47.8467C47.3572 48.3674 47.1489 48.7227 46.7371 49.1193C46.636 49.2179 46.5349 49.3164 46.4308 49.418C46.2676 49.5739 46.2676 49.5739 46.1012 49.7329C45.8721 49.9553 45.643 50.1776 45.414 50.4C45.2969 50.5132 45.1799 50.6263 45.0593 50.7428C44.7161 51.0767 44.3771 51.4138 44.0396 51.7526C43.934 51.8586 43.8284 51.9645 43.7196 52.0736C43.5191 52.2751 43.3189 52.4767 43.119 52.6787C41.8437 53.9536 41.8437 53.9536 40.9991 54.168C40.1173 54.1824 39.5702 53.8354 38.9481 53.2829C38.7603 53.1068 38.5739 52.9295 38.3888 52.751C38.291 52.6583 38.1932 52.5657 38.0924 52.4703C37.5114 51.9165 36.9499 51.3514 36.4131 50.76C36.1301 50.4607 35.8286 50.1856 35.5214 49.9078C34.9325 49.3672 34.3863 48.7974 33.9492 48.1411C33.9492 48.044 33.9492 47.9468 33.9492 47.8467Z" fill="#AE1953"/>
<path d="M9.19292 11.3071C9.43535 11.3085 9.43535 11.3085 9.68267 11.31C9.84959 11.3124 10.0165 11.3149 10.1885 11.3174C10.3585 11.3188 10.5284 11.3201 10.7036 11.3215C11.1219 11.3249 11.5401 11.3298 11.9584 11.3358C11.4838 11.6303 11.4838 11.6303 11.0883 11.8235C10.625 12.1145 10.4668 12.345 10.2182 12.808C10.1463 13.2021 10.1463 13.2021 10.1542 13.6209C10.1512 13.8597 10.1512 13.8597 10.1482 14.1033C10.1486 14.2739 10.1491 14.4444 10.1496 14.6201C10.1483 14.885 10.1483 14.885 10.147 15.1552C10.146 15.5283 10.1462 15.9014 10.1476 16.2745C10.1489 16.8448 10.1444 17.4149 10.1394 17.9852C10.1391 18.348 10.1392 18.7108 10.1397 19.0736C10.1379 19.2438 10.1361 19.4141 10.1343 19.5895C10.1428 20.5107 10.173 21.0939 10.851 21.7885C11.1408 21.9788 11.1408 21.9788 11.4442 22.0646C11.6987 22.1466 11.6987 22.1466 11.9584 22.2302C11.9584 22.2788 11.9584 22.3274 11.9584 22.3774C11.3717 22.3903 10.7851 22.3981 10.1984 22.405C9.94999 22.4106 9.94999 22.4106 9.69658 22.4162C8.11051 22.4302 8.11051 22.4302 7.3705 21.9358C6.82426 21.3984 6.65812 21.0705 6.65329 20.3327C6.65079 20.1618 6.64828 19.9908 6.6457 19.8146C6.64649 19.6312 6.64727 19.4477 6.64808 19.2587C6.6471 19.0691 6.64612 18.8794 6.64511 18.684C6.64346 18.2832 6.64418 17.8824 6.6465 17.4816C6.64921 16.9695 6.6455 16.4576 6.63993 15.9456C6.63561 15.4551 6.63721 14.9646 6.63819 14.4741C6.63609 14.2909 6.634 14.1078 6.63184 13.9191C6.64822 12.502 6.64822 12.502 7.08997 11.9678C7.7864 11.432 8.29808 11.2978 9.19292 11.3071Z" fill="#840033"/>
<path d="M31.9716 12.633C32.1322 12.6303 32.1322 12.6303 32.296 12.6275C32.8834 12.6259 33.1312 12.6439 33.6327 12.955C33.541 13.0051 33.4492 13.0552 33.3546 13.1069C32.2093 13.7682 31.363 14.5347 30.9433 15.7522C30.7861 17.099 30.8277 18.318 31.7343 19.4328C32.1285 19.8156 32.5444 20.1456 32.9999 20.4633C33.1172 20.5455 33.2344 20.6277 33.3552 20.7123C33.4468 20.7759 33.5384 20.8395 33.6327 20.905C32.6537 21.2087 31.1288 21.2463 30.1523 20.8774C29.9956 20.7893 29.839 20.7013 29.6776 20.6105C29.5861 20.5621 29.4945 20.5137 29.4002 20.4639C28.4113 19.8895 27.7194 18.9959 27.4035 17.9514C27.1652 16.5547 27.3264 15.4401 28.1846 14.2524C29.1501 13.1237 30.4626 12.6343 31.9716 12.633Z" fill="#D6A39C"/>
<path d="M50.7189 12.6612C50.8756 12.7583 51.0322 12.8555 51.1935 12.9556C51.0388 13.0416 51.0388 13.0416 50.8808 13.1293C49.7581 13.7981 48.9695 14.5478 48.5622 15.7551C48.3002 17.0727 48.5717 18.3204 49.3513 19.4494C49.8748 20.0606 50.4464 20.4107 51.1935 20.7583C50.3553 21.2784 49.3183 21.1387 48.3459 21.0528C46.8831 20.6789 45.9645 19.6831 45.1818 18.5224C44.8732 17.4275 44.783 16.0628 45.3036 15.0075C45.9512 14.0585 46.7684 13.1456 47.9232 12.7417C48.8389 12.5673 49.7918 12.5722 50.7189 12.6612Z" fill="#D6A39C"/>
<path d="M71.4434 11.3359C71.722 11.3312 72.0008 11.3278 72.2795 11.325C72.4347 11.323 72.5899 11.3209 72.7498 11.3188C73.5147 11.349 73.9528 11.6007 74.4693 12.1081C74.8133 12.5789 74.8463 12.8171 74.85 13.3806C74.8525 13.5516 74.855 13.7226 74.8576 13.8988C74.8564 14.1739 74.8564 14.1739 74.8552 14.4546C74.8567 14.7391 74.8567 14.7391 74.8582 15.0293C74.8598 15.4302 74.8591 15.8309 74.8568 16.2318C74.8541 16.7439 74.8578 17.2557 74.8634 17.7678C74.8677 18.2583 74.8661 18.7487 74.8651 19.2393C74.8672 19.4224 74.8693 19.6055 74.8715 19.7942C74.8551 21.2108 74.8551 21.2108 74.3861 21.7513C73.5467 22.4281 72.8267 22.4164 71.7598 22.3775C71.8394 21.5994 71.9485 20.8579 72.1553 20.1002C72.794 17.091 72.2523 14.2679 71.4434 11.3359Z" fill="#F24386"/>
<path d="M33.9492 47.8467C37.4798 47.8844 37.4798 47.8844 38.3931 48.4367C38.6939 48.8143 38.9261 49.2021 39.1699 49.6133C39.4283 49.8725 39.6958 50.124 39.9708 50.3678C40.9321 51.2431 41.7953 52.1821 42.6504 53.1466C42.1228 53.6346 41.7022 53.9858 40.9794 54.1864C39.8197 54.1668 39.1469 53.4819 38.3888 52.751C38.291 52.6583 38.1932 52.5657 38.0924 52.4703C37.5114 51.9165 36.9499 51.3514 36.4131 50.76C36.1301 50.4607 35.8286 50.1856 35.5214 49.9078C34.9325 49.3672 34.3863 48.7974 33.9492 48.1411C33.9492 48.044 33.9492 47.9468 33.9492 47.8467Z" fill="#5C0627"/>
<path d="M25.248 40.3384C25.316 40.4287 25.3839 40.519 25.4538 40.6121C25.7821 40.9969 26.0512 41.092 26.5433 41.2585C26.6859 41.3079 26.8284 41.3572 26.9753 41.408C27.084 41.4437 27.1927 41.4794 27.3047 41.5161C27.2466 41.5856 27.1885 41.655 27.1287 41.7266C26.5171 42.4698 25.9748 43.236 25.4557 44.0373C25.3809 44.151 25.3062 44.2647 25.2292 44.3818C24.8355 44.985 24.4679 45.5896 24.1406 46.2272C23.0194 46.147 22.0321 45.8431 20.9766 45.4911C21.5129 44.351 23.7029 40.3384 25.248 40.3384Z" fill="#5C0627"/>
<path d="M32.209 38.5719C31.7344 38.8664 31.7344 38.8664 31.2103 39.0688C30.6455 39.2936 30.1494 39.5222 29.6777 39.8969C29.5979 40.4168 29.6579 40.7249 29.8359 41.2219C30.181 41.3727 30.181 41.3727 30.627 41.5163C31.0523 41.7062 31.4725 41.9054 31.8926 42.1052C31.8926 42.1538 31.8926 42.2024 31.8926 42.2524C29.918 42.1875 27.2407 42.0023 25.5645 40.9275C25.2382 40.5226 25.2382 40.5226 25.0898 40.1913C26.2975 39.2108 27.8605 39.0029 29.4009 38.7559C29.5166 38.7371 29.6324 38.7183 29.7517 38.699C30.5785 38.576 31.3718 38.5565 32.209 38.5719Z" fill="#F24386"/>
<g filter="url(#filter0_f_150_504)">
<ellipse cx="40.6732" cy="84.858" rx="29.9153" ry="3.8399" fill="#D7D7D7"/>
</g>
</g>
<defs>
<filter id="filter0_f_150_504" x="-4.64219" y="65.6181" width="90.6311" height="38.4797" filterUnits="userSpaceOnUse" color-interpolation-filters="sRGB">
<feFlood flood-opacity="0" result="BackgroundImageFix"/>
<feBlend mode="normal" in="SourceGraphic" in2="BackgroundImageFix" result="shape"/>
<feGaussianBlur stdDeviation="7.7" result="effect1_foregroundBlur_150_504"/>
</filter>
<clipPath id="clip0_150_504">
<rect width="81" height="101" fill="white" transform="translate(0.5)"/>
</clipPath>
</defs>
</svg>
